<svg xmlns="http://www.w3.org/2000/svg" viewBox="0 0 63.9 63.9"><path d="M47.307 15.818s-.415 1.281-.499 1.551c-.048.156-8.474-4.742-8.474-4.742.1-.2 3.019-4.27 4.165-5.416.531-.531 1.449-.895 2.035-.708.586.186 1.089 1.013 1.256 1.735.292 1.68.119 3.482-.165 5.069zm-2.409 13.8c-.8 0-4.56-.787-4.56-.787s-.701-.936-1.419-1.055c-.654-.322-1.322.091-2.317.323-.348.059-1.772-.7-1.89-.934 0 0-.156-2.509.462-3.317.607-.794 1.808-1.414 2.976-1.528 1.889-.054 3.651.699 4.739 1.83 1.088 1.13 2.009 5.468 2.009 5.468m-19.699-25.9c2.319.278 3.944 6.47 3.014 8.214-.736 1.379-2.91 1.467-3.794 2.756-1.242 1.811-.024 7.461-6.483 7.859-1.277.079 1.012-19.578 7.263-18.829" style="fill:#f9f2e0"/><path d="M52.49 51.749c-.238-.298-16.16.051-18.734-.865.433.477 5.415 4.008 7.429 5.418 2.284 1.628 5.509 5.397 7.309 7.604h-9.341c-5.758-3.415-18.256-11.043-19.965-13.914-2.618-4.656-2.454-10.087-.602-13.988 1.855-3.907 8.96-9.159 14.864-8.9 8.109 2.811 25.068 7.843 25.068 7.843l1.779 6.454c-1.073 2.207-10.724 6.198-10.272 6.669.849.886 2.465 3.679 2.465 3.679m-.484-25.03c-.083.062-2.183 2.322-2.183 2.322-.789-1.153-1.839-2.769-1.546-3.878.295-1.121 2.726-1.863 2.93-1.746.36.982.725 2.52.799 3.302" style="fill:#f9f2e0"/><path d="M56.806 35.818c-5.7-1.4-11.5-2.9-17.2-4.2-1.7-.4-3.2-1.1-4.1-2.7 0-.1-.3-.2-.5-.2-1.8.2-3.5.2-5.2.5-8.6 1.7-13.9 11.3-8.8 20.1 2.1 3.6 5.3 6 9.1 7.7 2.5 1.1 5.1 2.1 7.4 3.7 1.364.974 2.596 2.033 3.672 3.188H10.214a23 23 0 0 1-5.008-4.888c-4.5-6-5.9-12.7-4.9-20 .9-7 4.1-12.9 9.2-17.9.2-.1.3-.4.4-.6 2.1-6 5.3-11.3 9.5-16 1.3-1.4 2.6-2.9 4.3-3.9 1.6-1 3.1-.8 4.3.7s1.9 3.4 2.4 5.3c.4 1.4.7 2.8 1 4.2.8 0 1.7-.1 2.6 0 .5 0 .7-.1 1-.4 1.5-1.6 3-3.2 4.6-4.7 1.1-1.1 2.5-2 3.8-2.8.6-.3 1.3-.5 2-.5 1.4.1 2.2 1 2.6 2.5.5 1.7.5 3.5.4 5.3-.2 1.9-.5 3.8-1.1 5.6l-2.4-1.8c-.3-.2-.4-.4-.3-.7.3-1.6.5-3.3.2-4.9-.2-1.1-.8-1.3-1.6-.5-1.1 1.1-2.1 2.4-3.2 3.6l-.3.6q3.9 1.65 6.9 4.5c2 1.9 3.6 4.1 4.6 6.8-2.1.7-2.7 3-1.3 4.9.4-1.3 1.1-1.8 2.1-1.6v2.4c0 .4.1.6.5.7 1.1.4 2.1.9 3.2 1.4 2.2.9 4.3 1.8 6.4 2.8 1.1.5 1.8 1.4 1.8 2.6 0 .7-.1 1.6-.5 2.2-.6 1-1 2-1.3 3.2-.8 2.3-2.4 3.9-4.5 5-3 1.5-6.1 1.5-9.3.7-1.3-.4-2.5-.8-3.5-1.7-.7-.7-.8-1.5-.4-2.2s1.3-1 2.1-.8c.6.2 1.1.4 1.6.6 1.9.8 3.9 1.1 5.9.7 2.1-.4 3.7-1.5 4.6-3.5.1-.3.1-.5-.2-.7-1-.8-1.6-1.8-1.4-3.1.1-.3.1-.7.2-1-.1-.1-.2-.1-.4-.2m-34-18.6c-.2-2.5 1.2-4.1 3.4-5.1 1.3-.6 1.4-.6 1.1-2s-.8-2.8-1.2-4.2c-.1-.2-.2-.5-.4-.7-.4-.6-.9-.7-1.4-.2-.4.4-.8.8-1.2 1.3-2.4 3.1-4.1 6.5-4.7 10.4-.2 1.4-.2 2.9 0 4.3 2.4.3 4.6-1.4 4.4-3.8m15.4 6.1c-1.9.1-3.2 1.8-2.6 3.4.2.4.3.5.8.4.9-.2 1.8-.6 2.8-.3.9.2 1.6.7 2 1.5 0 .1.2.3.4.3h2.2c-.2-2.8-2.3-5.5-5.6-5.3" style="fill:#c79400"/><path d="M32.507 49.318c3 1.3 6 2 9.3 1.9 2.7-.1 5.3 0 8 0 .8 0 1.8-.2 2.4.2.6.5.9 1.5 1.3 2.3 1.48 3.404 2.206 6.808 2.165 10.188h-8.479c-1.677-2.632-3.896-4.883-6.586-6.788-2-1.4-4-2.7-6-4.1-1.4-1.1-2.5-2.4-3.4-4.1.5.2.9.3 1.3.4" style="fill:#c79400"/></svg>